<mxfile host="app.diagrams.net" agent="Mozilla/5.0 (Windows NT 10.0; Win64; x64) AppleWebKit/537.36 (KHTML, like Gecko) Chrome/131.0.0.0 Safari/537.36" version="26.0.4">
  <diagram name="Page-1" id="RGHxs1uyxFRw_bNAG6Qs">
    <mxGraphModel dx="1050" dy="530" grid="1" gridSize="10" guides="1" tooltips="1" connect="1" arrows="1" fold="1" page="1" pageScale="1" pageWidth="850" pageHeight="1100" math="0" shadow="0">
      <root>
        <mxCell id="0" />
        <mxCell id="1" parent="0" />
        <mxCell id="_bFw7IO8A0CmWNA5nllF-6" style="edgeStyle=orthogonalEdgeStyle;rounded=0;orthogonalLoop=1;jettySize=auto;html=1;" edge="1" parent="1" source="_bFw7IO8A0CmWNA5nllF-1" target="_bFw7IO8A0CmWNA5nllF-3">
          <mxGeometry relative="1" as="geometry" />
        </mxCell>
        <mxCell id="_bFw7IO8A0CmWNA5nllF-7" value="Post Webhook" style="edgeLabel;html=1;align=center;verticalAlign=middle;resizable=0;points=[];" vertex="1" connectable="0" parent="_bFw7IO8A0CmWNA5nllF-6">
          <mxGeometry x="-0.1608" relative="1" as="geometry">
            <mxPoint as="offset" />
          </mxGeometry>
        </mxCell>
        <mxCell id="_bFw7IO8A0CmWNA5nllF-1" value="GITHUB" style="shape=image;html=1;verticalAlign=top;verticalLabelPosition=bottom;labelBackgroundColor=#ffffff;imageAspect=0;aspect=fixed;image=https://cdn2.iconfinder.com/data/icons/font-awesome/1792/bitbucket-128.png" vertex="1" parent="1">
          <mxGeometry x="120" y="210" width="88" height="88" as="geometry" />
        </mxCell>
        <mxCell id="_bFw7IO8A0CmWNA5nllF-2" value="&lt;b&gt;DEVELOPER&lt;/b&gt;" style="shape=image;html=1;verticalAlign=top;verticalLabelPosition=bottom;labelBackgroundColor=#ffffff;imageAspect=0;aspect=fixed;image=https://cdn3.iconfinder.com/data/icons/developerkit/png/Users.png" vertex="1" parent="1">
          <mxGeometry x="40" y="370" width="98" height="98" as="geometry" />
        </mxCell>
        <mxCell id="_bFw7IO8A0CmWNA5nllF-3" value="Multibranch PIPELINE" style="shape=image;verticalLabelPosition=bottom;labelBackgroundColor=default;verticalAlign=top;aspect=fixed;imageAspect=0;image=data:image/png,iVBORw0KGgoAAAANSUhEUgAAAGIAAACFCAIAAAAvhrpjAAAgAElEQVR4Ae2dB1AUyff4vfPu9HtmRVjC5mVzXjaSc5CMZEQyEgRUQE9EUREDB6KiYs4oIkgOAgqIKBklLSAgIKAgSBRQgf8teyJyqIjc/ar+5dTUVu9M73T3Z957/fp1z+y8sR/bDAjMm0GeH1nGfmCakRD8wPQD04wIzCjTD2n6gWlGBGaU6Yc0/cA0IwIzyvRDmn5gmhGBGWX6IU0/MM2IwIwy/ZCmH5hmRGBGmf4PpOndu3f9/f1dXV0vX75saWlpbGxsaGior69vaGhoampqaWlpb2/v6ekZHBx8//79jBrx72f6P8DU0dFRUFBw48aNoKCgbdu2bXB0XGdubmpiss7CwtnJycfHJzQ0NCUlpaqqqre3998nMKMS/iNMvb29JSUlp06dMjAwoNFoeDwegUCAQCARERFBQcFV45vAqlWCgoIiIiIQCASNRhOJRElJSWdn59jY2Pb29rdv386oQf9Opn8dU2Vl5YXz5903uhkYGMjLygFFRBf8+tvi3/9HxCItDLW2OFv5eTsf8PUI3uu9f4f7Li+nTRssLY201yjLIuCwpUuXioqKKigoWFtbnzt3rra29v9KDf8tTP39/Vwu99q1a56enuqqalg0WhgAWL5kGVBElEEhWRhqHQnYlhV3qTY/6WVVVk/9o6GW4u66hy8qMrkP43MSr8RePR6wy8vaTF9RhoVCQOfN+4XJZO3YsSMrK6u/v390dPTfEZrPXnXuMQ0NDbW1tWVlZfn5+UHHNzVV1XXmFlKSUiCgiJK8zJH9O54Wpoy8Kh9uLRluLRlqKR56XsTfB5sLBpsLhp4Xvm8vfd9e+rLyXmbM+d3erigERlhIaNmypTo6Ojk5Of39/f+xWM09pqqqKs/Nm0FiQAAA4O/vn5WVdffu3V07/QhYwrEDPk+LUgZbigefF/EZDbeWvGnK66+/z997qtO7K5PH95TuypT+mrT+2rtd1XdflqedOLhDgoyfP38+DofLzc39j637nGF6//59S0vLoYMHVZSV9fX09+7ZGxUVFR8fv3fPnvWW691dHNKjzz8vvzfQXDjcWjL4vLC/4UFvzd3e6vSe6rTuqtS/98qUD5h4sHqqUno+nHqWFxV9JsBYS2XhwuVkMjkmJqazs/OzSjLXJ+YGU39//7179xwdHVWUlR0cHI4fPx4bG3vlylUX540268z2bN90J/p877O8ty8eDzYXDDQ86HuayaPzt+Dwxecrn33c1LbimMRLf65fq/XzTz8pKytHRkb29PTMNZDprzcHmIaHhzMyMhwcHFBIlLOzc1xcXHp6+pkzZzY4OCpISwb4eJRmRb97+WSopfhN48O+p1k93DvfBGgic191amdZYnZUqBybsmTx77q6ugkJCW/fvv0PLPocYKqtrbWyssKgMd6eXtXV1enp6YGHDllbWRnp6x7ydasvTn338vFQS9Gbprzuqk90aqL9M0/wSJUnZUQcY9EICxb8pq2tXV9fPzIyMr0MzN3ROcDk6uoqLy+/ffv2mpqarKys7X/84ejgYGdt6Wpt0l6TM9RazLPTjQ+7P7U7M0czOWdPddpAw4PhF6Wngv0YFAIYBN7ssWlwcHDugEx/pe/CNDQ0VF1dLS0tbWtre/369XNnz+rr6CgqKDAk6FYmBo9Srr1p5vVoA88eTLFEPdVpbxof8fa6zL7q1MkgvpDuqU7vr8/pqs3JSboacS7YQFtNSEiISqXm5ub29fVN3745Ojp7TO/fv29tbQ0JCcGiMZIcjpGRkaqKipqKqpmpKZVCMdHT6G3IG2opHmzK7629N9H4Hm5a39PMlxXp+XduXDm+P/L0geLUCxNnv5zoq8sqvhvpv2OzgZayvqayBIkgJLAaDARu3769oaFhjoBMf5lZYhoZGamtrQ0NDVVQUIACwShxJIfD0dfXDwgIOHbsmLKysraafDv3/pum/L667AmbzUvU3CvLjrp0Yv9Ge3MlaZb+GpVj/p412eG93K/LVN/TzJSIk8a66pqKHBUZujSDjEXABFcJEInEBw8evHv3bvomzsXRWWLq6uoKDAycP3/+ihUr0OLITe4eycnJ5WVl9+7di42N1dPTU5blFKZHdNfc4zlEHzzG/rrsusKknd6uUAhYFLCaQSYqykputDONO39g8Gl6zwz8g5rs8Oyo0K7ypGcPI6NP77My1Fi+bPG8efPCw8Nfv349F0Cmv8YsMV0PD5eXk1u4cCGZTL5+/Xp2dva1a9e2b9++wcHB3c1NQUF5rY5mYdqNzvKkD4ySu6tSB5sL/tjsLCfFtjfVeRgb9uzRrZaimNaimJelcR+zfRFWZ1lix+P41xVJXeWJnWWJj+9c3L/NccFvv+7du7empmb6Js7F0dlgevPmjaenpwhAmEqmXL9+/ebNm4eDg708PV1dXR0dHFxcXBQUlIz0tAvTbrwqS+S3v6cqpbsq9VFKuJHuGnc700dxp16WxvVUpfRyU3mnvojmc2d7qlI6yxLyE05rKUm5u7nev39/LoBMf43ZYKqtrTUyMoLDYO4b3R4+fBh46NBGV1cHe3uX8W3jxo2SHCkdNcWyezc6P2Dq5fI8w9CArTs328VfPPS5ln/r8Z6qlOcF0cf9N2uqKV2+fHn6Js7F0dlgysjIUFFRkZGRuTi+ubu5OYwLER+Tq6srg07XVZVpzo/u+qB0PVUp7aVxR3a7Z90KbSm8/a04ps3/6klCx5P49tK44uRzNALy4MGD/56fORtMERERUlJSampqUVFRrq6ufDoTn85OTvIyMhvM9QafZkxuXmdZYl3Ojc+ZodcVye2P4yakb+KHfDM08XVyoj43si4ngn9Eik4ICAgYHh6eC9GZ5hqzwXTmzBk6na6oqHj58uV/YrK2srIw0j28y20KptcVSZ1lia8rJhn1cZPE8zxrM1vL0hOvBHEzr04G0V2Z3FYc0/AwcsrB7srk3tp7aTdPJl0NGazLGKzLkGaSfH19/73O7tsw9ff3FxUVaWhoCAoKKikphYWFTcG0ceNGU2MTFxuziBO7p2D6Z1N5oZJxx3rweWF3w6N9W51zY8P6JjlQfdWptfev37kWXJx87mVJ7IcrpPTW3n3T+Oh+/KVbZw+Vpl54U5suwyRt3br1xYsX00jCXBz6BkxdXV137961srISAYIWLVmiqKh45MgRFxcX1w+bi4uLm5ubgb7+to22GTdCZoKpt/bem8ZHw20lA82FIXu94y8GPnsUOUGql5vKzbx248Tu4F1uDQ8j/+4Tq1L76rIHnxfWFyZHnDqwz9uxl5uqoyZna2v773V2M8XU09OTkZFhb2+/eOFCnKioqKCgrKJiYGCgjY2NlZWVjY0N34q7ubnp6+nt9nbOiz89E0w91ekDDTlDzfn9zx49SLhwzN/z1mn/9sfxHwQnuTHv1u2zAQociYdxpzrLErork7sqkjsq7rSVpTUVJZ465CPHkniac8NhnaGykqKvr299ff2/Ef/9OqbR0dH379/n5ORYWVktXrCABYHsxqKlwWCGotLOnTuVlJQYDIakpKS2to69vcPGjRsN1xru8XZ5FBc2E0ydZYmd5YmvK1O7uBl91XesjTXN9FRzY05OYOqrTs2NOfn7wgUhu90r7/EsV3tpXEnK+ZizAReDt7uuX0sn4KJP7/OwNcYgIAgEwsfHp7Ozc867vK9jGhkZ4XK569evXw0QpoNAjxgSCVSSHgK+AiAsICDw+++/A1YLrly+YvHi5aKicCMjYzMT0z/cHRIvBc4EU2HS2bOB2/Z62Z8P8ok6vc/MQFNHQ/nUoe28sUsVL57ZV53amHcr0MeZiieeOvhHLze1OT/qT9+NNAJKWHAVHgVzNNdreHhzh5u1BAG7avkKGAx2+PDhpqamubBIH6/xFUzv3r179eqVnZ2dCBLJAQKvUIg90pyNGBRMAAABw0z1NS4c8488fzj8dOCOTY50EhkMRhoYGNquMwn13zITTBUZl/dt3cCkEKgEJIuKI+DQ9usM7kefnBgJ91Qld5Yn1mSHK8nJ2Jvrp18P6alMKU45H3bAM3CH84Wg7Xnxp/u4qX6b7RxZEmYQMF5YmEQghIeHt7e3f2zld6e+gqmtrS00NFQUBqeIivxJxDdxGLVshgQYAhVH2ZgbJUeEVebGFd2NfFqQXHI3MmC7+8IFi5WVVZUUFDc5WPRXfz2Y21J4O+HiIZ+NVk6Wuk6WuttcLW+d3tf6D/+zv/rOsX1eBmsUPOyMnqRdGqrLaCm83Zh362Vp3EBt2lBdxg436z1SjDNEvAsSsXDpMk1d3fj4+DmcKP4Spt7e3qSkJHEEAiImtg+HqWEzXkqxb1GIcEGAgYFmwvUTTU8yzoXs2ey0/uDOzZkx50syImBgUQqJBIaIr9VS549RJ6zM5xJ93NT+mr+B9lffmTZK97oiqTk/ymuDmYoMfa+nXUvh7Qn/q6cqZaguw8PBbDeLlkYjxVNJVBjs98VLHJ2cuFzud4vR3xf4LKbR0dFHjx7Z29v/+tNPHnBYMVNiWEayWZJ1BI8FLlx4cNfmpwXJSTdObrDQExES+PWXX3RVpe9Hn3C1XgsUEfr111+0lCSf5tzoKv976Ps5RjM//uZpeuW9K95OZnCwaMSJ3a1Ft/l+Ax+T1fq1W2mkbDq5jEmLIBPIYkBxAnHnzp3v37+fkwmFz2Lq7Ow8dOiQKACAExHJptN6pTm90pwyFn0/DiO6cPmxg7sGmvKfPoo5fXCrr7tV4A7nP3e4+LhZpV8POb5v89nArfejjr96kjBxz2eO43M5e6qSX1ck5cac3OJoCgUKXwrxac6P6q+5w8ektEbZFY16xKBUsGiPmVRvDIooJKSoqJidnT00NPT9MvVZTLdv39bQ0QULCAQTsK2SrB5pznNJZj6DGoTHii1cfOLPXW/bipuLE04d8Io9f6A09UL8hYNeG8yb86PrHkQ0PLz54qPT/JUJuM9x4fno3LQe7sfpvJ6qlBclsRkRR9QVpVTlmJcO+/BL6eOmSknR3aHgEia1nEWrYNESaSRjCFgMAjE0NHzx4sX3+wfTYBoZGeno6PBwd8eJi+vDYDVs+ispdrMks5otkc+kXCThIf9b+Ocer566nOfF8acOeD+MDWsrjqm4eyUybG93ZfJATVovd5YhpMnIerhp/fX3+55mTj7YV53aUhRzzN8TAhTZvdmmrTimqzzxeWE0m0ryBAErWLSyD/shApYMEBIUFExLS+vu7v5OgZoG09u3b1NTU6Xl5BmrBU6TCMMyki2STC5LooxFK2FS0yRIyCVLvDba1uRGv3qSkHgpsDT1wj/7psltm0X6Nc/VTuuty+mvy574eU9Vcm9VSnNBdHioH42IPrLHvacqpeNJfHHyOTkyZScExv3AqJxFS6WRPGCQVStXOjs7l5eXf6eFmoppdHR0YGDAxsZGGIleh4DXc+hDMpLP2PTJNwonBtLR04y7FDz4NP11ZXL9g4i5xTQePEkqyrjxLD9mgtHriqT+mjsdj+MzbhzVVJIx0lRKuHhouP5uZ1li4sVDTnTaGRRyAlMZi1bOop0nE8CiYvPnz4+KivrOCYWpmN68eVNRUUEgENiiomFEQrc0u1WSVTUuSvyyq1m0jSgkRUzUxcbkVdXd15XJr54k8Hu0nqrkNzzv+Xs1rv1xXNW9q6cO/VGccmHwaTp/b3h489qxnesN1TkShF2bbB7cPtnxOH64/m5L4W3/rc4+dOotInbyveQJlATJTRyx+Jf5vr6+3+kcTMXU0tJy/PhxEAjkCAXnMngdXA1bovyDMJexaFw2LYJCkBMRoTFoYYd8OssS+6vvDNSk9XFTW4pux1842JgfMzHjNCEL35ToLEtoyL2pry7r7Wx+5eiu88G+3i7WFvpqG63X+nvZnz7oVZh09nVF0tOcG9ysazX3b8grSO8nEzJoxMn1LGPRChiUqyT8ilUCUrJyETdufI95moqppKRESUkJKiYWisM0c5jtUqwpZZezaMUMqhcaRYUjpKVYpw5450SfKM+4nBN9Imy/l6uV4ZN7Eb01d7+Jy/i4P6nh4c2Ox/F91al91ald5YluNmvdbQ33/+EU8IeLg8Vaa+M1of6bipLPvXqSUPcg4sZxv8shO7Iij+XGnVotInwMhy5gUKZUtYxFu0+nSMLgokJCfrv8+vv7Z03qE0zDw8MJCQnzf/qJISaWLEHtkmbXsRkTfcdEgsuiJVNJrkikMEBUYLWQpbHWzs12NsbaBAzawWJt+f2YyXb3S7yqUnq4d3iiV5XSVZ54N+LI/ajjT9Iu1j2IaHx0qyTlfOq14PgLB+9GHHl852LH4/jnBdFP0i7eCQ8+utudSkB5O5llRh67fmyX4NIll3GoiepNJCrG+xx/HEZ88SIbG5vv0btPMDU2NgYHBy/4+ac/xBFlLHq7FGuytk8UX8aiVbJo6TSyFwY9Xwz0M0B0/uJVS5euVpCVaudmD7YUzxBT39Oswab8N42PBuqyermpF4K2M8hYPApmb6qze4vd+aDtV4/uvHp05/XjfnHnDxQlnwvy3ciRIP76yy+/zJ+/3lAj61ZoQeLZrfYmOkjxZBqpcpJlmKjqExY1iUaiL+MFESMjI+dGmvLy8pydnQUWL75OxLVKsl5KsibKm5IoH79RmXTyFQpxPw6jAoagEQhLI+2+5sK3baUzxVSXNdhc0FGZ8TjtUuq14Jrs69Fn9v3hsk5DQVJMWBAOFhWHio3vIDQCffXoLjNd5cW/LxESEN7htv5hbNiLktirR/3wYhBfLDqbTv6nxo3XmVrMpKqCQXAkavPmzXODKfLmTUmOpKgQ4CGD2iHFbuRMo3FTeJWxaLl0ijcWTQGDFKQY3Q2PhltLpmBqK455Xhj9T+3rqU7rr8/prEx7GHdq1ybbyrtXG/NuFSaejTixZ/82x+0b17la6VsbaVjoq60z0My6FXohePtOD5vj+7yfpF3qrkyuvX/d190OuGBFNJlQyKT+s2L8I1wWzQ2NQgMAenp6b968mZ1H/lHp3r17F3L4sJigEAcKreUwX0iyqtk8l/KrexWLdpyIkwUIwaHAmvyk/saC/vqcSUsHkpvybpXeuVCQeGZi2m4CWU91eg/3TuW9q4d3uR/ycUu5GlyfG9FVntTLTX1eEF2WfulhXFh21PH7Ucdflsa1FsW0jOMeqEkbqE27dtRPT05aabVIEYPyhUpyWbRjBJykgICsrGxDQ8PsoisfMXV3d/v6+or9/j9PNOq5JKuJw/iMGE8FV86iRVEI5kAxIFA09sqxdm72m6a83tqPnV1r0e27EUf9vRyb86MmAE1JPC+IlmOzTXXUQvduuhtxpPLulac5Nxpybz57GNnwMHJ8nBg5McfXU5XS+OiWpZEuYYVQEJ7nLn2hqhUs2k0KQVNIUEJCIiMj482bN7NQvY+Y6urq3NzcEIt+P07AvZyxxvFv4yM6xQeNEoDBfdys64tTh1oKJmPixbNjw+zNdJMuB7YVx0wbrussT3ySdklLWXLhgt+WL10iDgZrKEiZ66lbG2lZGmjoqytYGmgkXgrkL+8dqss4HrCVxmFpQKDFn1c3ft0qWLQMCZKZsBAOh7tw4cLsVkp/xFRQUGBlZYVfvOg2hdjAYdaw6V+Q5Cmnypm0WxSiCRwGFxPOTrg03FLc35AzIS89VckthbdTrwXLsliRYfteFE/MuH0MHryuSGp/HJ8be/LoHg8bY001WY6SFFNdXtJQU8nRXNfX3frWKf/qrPBebkpXRVJR8lklaboSBByEx1bNwCzk0inWMAiMQNy7d29XV9d3SVNqaqqenh51yeJcOqWGTZ9J8ROwKli0RwxKKBa98OeFYX/6PX/Cm26ctBaeh6MpP2rnJvsNFoY3jvMCCZ/b63MjsqNCo88EhIf6hYf6RZ3el3I16FFcGN/57KlKqc4KdzTXBYGBCkCxUAKuegaYHjOpTkiEMBrr4OAwuxj5R2m6efOmqqqq5MrlXJZE9XjUZoLCVxM808CkxpAJyxetMjPQzog+N75APmfystSu8sTGvFseduZuNmYJF/98WRI77eivl5syUMuz0FP2vurUnqrk6qzwsP1eooIAIRExIhi8AYVMoJH4g80vVJLLonmjkaJQmIa6eltr63dJ06VLlxSVlBRFhJs4zCr2VDv9hUqUjQcMs+nko0ScqBhQcLXgQd/Nr+seDj0vnDK4e/M0vTzjsoeduaqsdGbksZclM1r91VOV3FOZ3FWe9DQn4mSAF4NMBIpBxJFYMRgCAwbbIMWz6OQnLF5A7nOV5LJo+/EYHAhEJhCbm5u/C9PZs2c5ikqSIFATh/k55/uf9agYl7tICsESiVwhBgIBBFctX26gpZpw/eRIx5P++vvdny6W7+OmPkm7tGeLLVBY8HLIjqa8W9Na9AmV7KtOHarLGHyakXotWEdFcfVKABgiTtG0UHDcSVHQAoLBECBIEw6Po5LKP9/fcVm0wwQsCcAL0z179uy7MB0PDZWQkuaAwDPBVD4+XnnMpMZRic4YlDwMhgGDxeBIvIw6RBwNBYNM9TUepoQPthQONORMCdR2liU+Sbt4fN/mtVrKzlaGFw/7VN27+qY2/Z97LzelJjv8xondlkZaTCoVCoSCQHCshIyM9Va1TYfkbLeR5DXBYAgKBNVBwE8ScUXTjX55UQ0WLZSIowsDBAQEvhfT0SNHqBzJmWCqZNFKmbyx0n4cRg8GJYAhMDwFK6PG0rGUsdlK17KAIPFIKMTMQC/kgG9a5MnKzPDWIt7Sr/5qXoT/SfrliJP+B7e7qMlL0Ul4ZSn2hnWGQbvc4y8cyo0JK0o+l59wJutW6LVju/Z5O9ibaanIMmEQyKqVwsuFRFdCEcJYMo4tJ225Wdl1n6yVJ0lWAwJFIMGQNXD4ATz2Ic/VnOqR8zExhHnT1N+LiSdN0jJsELjha47lXQnyGRLeGYmgg8SWw9EoCSm6lrmcvc8a75A13iEq7gcYGiYgCHLpopVYNCZgx5Zb54JiL/6ZeCUo6vT+68f3+mxy0FVTNOTQ9eU4SARi0bLVi5euRsARhmuUtjqv2+FmtdHa0MZYR19NQZpBIqDhcCgIIApEgaB0KFwOgZCDQbGrl5Ll1khbeSpvDJC39yHJqKBwJCAYyoaADxCw//SkuCzaUQKONj6b/72Yzp07J6moxAICeaHS6X02agmTep9B2YZB46CwxSIiYAhIQs1I2WUPH5CG12ENz2D1LUHyjr5UFQOYmBgECDqwf39QUJC1lZWSkjIIhF66FLBkuRAZCPoDgzYXF8dDoKIgMAQIBopBhVYLMUgECg4lKLBKFAA211X/c4drkO9Gi7Way4VENWGIMyT8YyatgClhixTHonAEZQNZu+3qm//U8DrMUDdGYwhCoqJiYMhdCfLjT+v/0TYJCX0vpvDwcDV1dSmAUC6dUvppMRXj6l3IoJwj4elQKAQIEoUj0dJqcjbb1DwOangG8zGpbwlSct4ra7ONZeJCXWOGZyuuXCXg5OSUnp7+kre1t7S0+vj4bpWVSaaRO6TYL6TY5WxGHI3sjUFDQOAFgsJaa5TDDnjnxZ9ueHirrTgm7vwBM111zErhYwRsFZvRzGE1cphcNuMWhYCBwkAcZQl9O7aZm7pnkJrHQaaWBRRDhIFAwXhszqcBAy6LFsDv6cjk7+3p4uPjtbW1qcuX3aGRJmMqZ1ELGJSzJLwNCkkBg0RWLREnMyS0LeXtfdTG7+Qa7xBVj0OKzrtlbXmAGIaOEnq2NO31FA1TtIwGU0VXeY2Ovb39hQsXsrKytLW1N6ORlSyJl1KsFklGM4dZzWbkMSTiJag+GLQ8AU+jSyhLS2oqcTSVOCxJuhmZdBNPaOAw2yRZDRwGLyrPpN2TIOOAICBTnqZrLaFvxzF3U9jgJ71uE1JaTVhE9BgBm/upLa9k0TzRSDE4Qkdbu62t7bt6uuzsbBMTE+ziReFkQvH4vGAZi/aERc1nULxxGFU4HAkGr4Yh0HQOZ609X9E0PINV3Q/IO/hKrfdim7kxjDbQdK0/3W1wSmshNBkUTVJN19DI2EQEgXCFQ+vYdL6jX82WqGXT6zmMFknmY6bESSLBDAyTEgBYCQu5ionIiIqZIhDxNDKXTX/GA8obPz1mUgsZFKKYGJDBw8Tf2aYb2UZOCCk1IYBwOJlQMClmwA+NbUAiRLG4v5ZAdnR0fBem8vJyR0dHxKLfj+CxheN3gxf2ZlJjqUQEGLICAoPiyBS5NXJ229U2B6ptClTeuE/RyU/GZhvD0HGiutMlbGi61kQ1EyhdYbkI5BcRoBsOW/+PSFY5i9YuxXrGYZ4iEe1RyEwJ8lM2Yx8ea40U/xOPzaJTqnnjp78DO1UsmgQIBB6XpokSqaqGKCoHLwbMkCBP1oYKFi2bTraEQhAk8qFDh2a3jPXjYKW1tdXLywv6++/7sJgiBpUfnchlUELwWDQYDMVRWDrr/zbVnsHyDjtYxs4TVZxRQs+Wpme7nCDhhsNNG2IvY9GukQkG4uIUGCyKQnzMpAXhMNvRyNsU4rhJ+jtaUs6i1bBoMjAYgq34sVw9W6K8FpNAs0YiSz+oAt8ZrmDRYqlEfYAgkUi8cePG7B4p+4hpcHBw7969Av/7nwlC/AGdt2ahnEUrYlIiKQQoGAKmSUkZO/Exydn7MI2daXo8Mfm2Xc92NUvBhSrB992n8+klkmgUPxzGAA73EAPQlyySW7kyDIuuYNGqx+lUjycqWTQqjGfCP9ZBzxYtpaqIJR4j4CaLUtn4IOEiCa8suJrFYuXl5c3uGcWPmEZGRs6dO4fBYGCiYnckeL4/3xA8YJCJEIgYTJymqKPifmCNd4jChl0sE5dvA8QHqmcLktOyobPvSpAnz9DyeZWzaFUsiXAK0YZI0FNR9rIw992y2dPBYb0kR2XlCms41AsG2wcBByHAgXgsEUMSl9P+iNT8z8AAABTtSURBVEnXWowmrQhHJPNGwp+4l1wWbR8OQ1m1UlFRsaOjY3YLWD9iGhsbu3Pnjo6+/v+WLL1ExBYyeZHTcVhUE3EESkwMRZeWsdm2xjtEycWfbeY2G0y6Nlh1E32W7BkSvo5NnzxYrRi3g2E4hDUKbqisfObMmcjIyLy8vMzMzODgYGNjYwoKqSYpZ6tn6qiz1kReGY0ho6U0PtZB0xxGYq6Fw0oY1PJPMVWyaJbicHEQeP369e/evZvdYoJPMFVUVPj4+Cz4+eddSMQ9CTJf76pYtBAClg2FihBoNB0rnp/ttp9j7v6xit+oehyOwkYMqmYcE3+8WsKkZtNIp0h4HQIWg0Xr6Og8fvyY/8Ki2traqqqqoqIieUmOnuMmz/MxbievG3ntIbFkcRwlyhpzfjWIinpskoQ3BjVFSJ+wqI8YFElREQKdERgYOIs+jv+TTzB1dnZevnT5t59/NoNC4qgkfmSunEVNlyCpIhBLIAgUU57nansdllrvOUtMeraiLAUmApEtQX7Mi35QS5nUFCrxDyQSAEeq2HtI65jA4Ah/f/+mpqbExMQTJ04kJiaOjo6qKCoZefjujsnh7wYeO5gqOkTZNbTxngHKVDLEky+T8VNiG6VM6jUygbx0iY6OTnp6+txgev/+fUZ6xuoVq0CiYsdJuA9KwQvl2KJRIDEgCkdSctmrviVI2sqLpjsDE65nO5Wmni1S2YBNl/yrA71BJgTjsaYQMAUMU1DSsQ88s/VKkuuRS2oWDqKiohkZGc3NzS0tLa9evRodHdVQ0zTZsnsCk7KBKVVRk6q1jnd9PdvlOKoVGp0mQZqMqYJFK2JQ3dFI4KJFLi4uz58/nxtMY2NjVVVVNtY2qwEAbwT0/geXv5JFCyZgFaBQEArHMnVV9TggZ+/DMPynM/lJx0fRskSylUjqplNIkbTWkaTVpKBQZRiMJSpCRmGktY0cAs/uuJmxOybHNyLdZu9RMALjv29fZWXlu/Ht7du3emvNLLYf2B2Ts+NG+obA0zI6JlQ1Q96VtdfT1E2AaMIfOEzJp2OsJ0xqKo1EBgIxKNThw4e/Z3XhJ0o3NjbW2dkZFxcnJiamLSJ8hUzgzzhXsGgJVKINCrkCgSIp6iq77FF03vM182RDWWMOEUdT15gxjJymkCKoGkFokhAqB4RASqrpOBw8OSEmu2Nytpy7rW7prKCiFhsbW1BQcOXKlVevXpnZOtnsObo7JsfzfIy8riljjSltXJQoWuswUurSGPxxIn6yYaoYn2cNwmGWLVtuaGqalpY2a1EaG/vHa9XfvXvX1tbG4XCwYsCtGBT//vAcKAbVF4cRhMAxBJqi4w4Vt/1fM082FA0zGBDIWWsvvd5LwsB+Cimarg1RZS1NRslk047JjHgCFXnP49RNMXHM/v0Hjh07ZmFhUV9fb7Np24bA0z7X79jtC0WgSSRVI/4FSWvMhfAMOywuhkqcPM1RyaLFUIlaUOiy//1+5MiRlpaWucQ0NjY2ODi4f/9+NJ2pAoFEUYh8ba9i0S6TCSpQCAQgKG/jreIW8HVMa8wRMHHZdR6KTn5sU9cpmKhalhA4lqWmZ7XnyK6oLL/b9/1u35/gtfPWPck1hrYOTsnJycPDw83NzQ7b9zodvrDh0ClZHROasj5flGg6VlhVw/kg6AECLyD3wZj+7fEdJuJ+EQPCoLCM7zDefLhTlW5sbOz9+/eVlZUamlrAFcsdUOLV494Tf3msGwopICrKMLBTdvWXs98xpeWffuUpHRyBlLX8DCZtSzgKCwaJUpmstRu2bDl/e2dU5gSmXdFZtntCpKUVdnp6dnV1lZSUbAs543rk0trNu1AMGZ490rHi9SFa60hymkAILJxCLPuwjJcf9omkEE3AwOWrVwcGBs4uxjRZ+qbBNDo6+ubNmwMHDjBoNClRkdsUYimTWslXdTz2NyFhgrqJwoZd8o47v9jZ2VC11qFJdHlrr+mlSceKILcGSaCgkCgigcSWVtK3d3cJPu9z487umBy/2/f/uJLIkVK01Ne/f/9+UlKSz6lwY4/t0jomeEW9v++Hng1RxZBEYVkgkekSZN6EHZOaS6dEU4jnSfj1CARMCICEI4qLimY3If4VTPzTBQUFDg4OIsuWmiLF0yTI5Szqk3EfZKmwCE5BR95uu6KT3xdjAzZUbUs8Q0bBdtu0mPhNJSsb4Jjy4ig8WFCYiCfJrzEwdPZy3Hds68W4XVGZOlbOejp6e/12hYSEOPmHKBmtp8qv+Siz2pYoKTU0HHmSiEujkW5TiYfxWA8kwkRUZI2YKAogvGjFKggIfPXKle9/anMaaeJjevfu3dmzZ0Uh0F8EAYF4zAM6hcumJdFIBAiEyFaQXb9F2dWfY/6FIcuMMI07hzYUDVM8S0EciQGtFkIAQRxZBVOP7Rv2n7DY6q9uYCIvybIwt1AysmRqmtI0PrgXOlYUZX0IiQkRET1Pwv+JRppCwEhhkd8BwiAwmE6nK8jJc5gsGAzGYDCSkpIGBgYmS8e3pj+LaXR0tL6+PjAw8Kd581iiopfIhBo2L2xojIBj0HiW0YY5wDTuQPPd6L8/1Y1xdCkwUFRwya+rf/6JgMETiTRRQQAcDAGh8Dh57Y9qrmqIoTBgECgCBCaAwYsXLJg3b96iRYuoVGpYWNjz589HR0cbGhoCAwOXLVu2adOmkpKSb0UzOf9nMY2NjQ0NDRUUFOjr64sICJgAxSIppEIGzQeDQgIANK11qu4HZGy2fVSBSSM7vKQyliZJUdARR2LkLDd/onTqJjRVQ5qqIVXFgCipQuAoEThKWKY8jMLh7SQmBEcBI1AQUREIQFgcChOHIaBAEAwMgcLgcLg4AoFEwMURcHEwGA4BQ8FiQMCq1b8vWKCvrx8SEnLnzp2ysrKXL1/yn7QfGhricrmmxsaSLHbYiZOTm/2t6S9hGhsb6+7uzsjI4HA4KDGgE1I8iUY+ScBhBFaRVAyVXP3l7Hymw2RDkFJF40goDB4OhlLltSiKuigyBwJFC0LRq4Hw1WLQ1WJQAVHoSkFhJJbAYEtJySnKKqooKKvJKalKyipQJBhQCGTF8uVLFy8RFFgNA4GgIiJQURGosBBUGCAOATOoVCUFBRKeIA6FKcjJBwYG/vWs9rNnz168eFFZWZmXl/fy5Uv+cq++vr6LFy5IUGlbvb1ntxaFD/QrmMbGxt69e3fkyBEig4EBANwwqMN4LG61IEFeR97Bd1pMRDktDF0agSFBQGComBiOQGGypeWkZJQ5HFUVFW1tbUNDQzMzM6vxzdvbOyAg4PDhwydOnDgVFnby5MmjR4/u37/f09PTzs5u7dq1bAk6RFgUR2WR2PIEhjQMiUUiEO7u7idPnvRwd1dXVbO1te3q6hoYGCgqLLwdHZ2ampqTk9PW1sbH9PbtWy6XKysra25uXlRU9K1CNJH/65hGR0f7+/s9PT0FIdBVwqKW4uJoAIAoqylru03ewXeKNEno2+KobCSJIc6QE6dJIeDiCgoKbm5uoaGhkZGRDx484HK5ra2tX12LNTo6OjIy8uzZs32+vnAxiPR6T7VNvMkblKQaDAy+efPmq1evSkpK9uzZY2Ji0tXV1d7efjg42HkDzx3t6Ojo7e0dGhoaGRkZHR3ljQf19GRkZM6dOzfR7G9NzAjT6Ohoa2vrzl27fvntNwExIAggRJbXlHf0VXHbPxmThJ6tpIWH8sZ96lv+VN/yp4pbgISu9enL1/krHt+9e/f+/Xt+1b8aGxsdHR0cHGxvb7949oycgpLCBj/1LbxpS7qqMUZYeH9AwPPnz3t6ekJDQ9Fo9PPnzzs6Ol69elVbU5uQkBAVFXXnzh0ul8t/Le3o6KiHhwcei7OzsflWOhP5v46Jn/Xt27eVlZUB+/f/8ttvogIr8RwlaSsvFff9H7uecRNON7BjGjuzTF1Zpq4MY2e4ot6BI8erq6snypthgu/itrW1Xbp4UVVTV9rKS9Fpt7yDL1lBFw2Febi78983cOHCBRgMVlhY2NPT09nZ+fTp09LS0srKyubm5p6enol47rFjx5gMhoaGRnd398TBGdaEn22mmPgd318N3rVrlzgMCiexpMw2/hPTZOEia68Hyq7x9N1dWFj4TXUaGxvjY2ptbb129aqOgRFD14pt4soycSXIrUHA4PLy8uXl5WNjY/Hx8aqqqnfu3Hn9+nVfX19jY2NJSUlFRUVzczN/BmV0dPTdu3fR0dGqqqpycnJNTU2zexTqGzDxzXlXVxeZTAahyVLGTl/GRNGyFJfXtnN1z8zMnDWmmzdvGputGx/rWtL0bPBya0BQuKCgYH5+/tjYWG5urru7+82bN9vb2wcGBhobG/Pz8/Py8kpLS589e9bX1zcyMtLf35+RkbF27Vo5Oblnz55974LnmbeEyWCA0SRJI8cvY+INUFUNDc0s4+PjZ35xfs4JaYqOjl5v60BS1OUFKvVs8Ao6wjDUvHnzsrOzR0ZG+Fb81KlTTU1NHR0dNTU1jx8/Lioqys3NLSgoaGhoGB4ebm9vT09PNzQ0VFJS6urq+teVbqKpmspKSDSepb3uK5h0rGg6VgwZxfPnz0/8doaJCUyxsbHWG5yBMhpETQuang1Z2QCOIc+bNy8uLq6/v7+0tHT37t0HDhzIz89vamp6Pr61fdhejm8NDQ2RkZGamprq6ur8DmSGdZic7duUjv9LU2NjAoXO1LL4CqbxKDUAIn7w4MHJRc4kPYEpISHBYaOH2AQmlbVwLHneTz8dOXKksrIyNzfX39/fz88vPz+/vr6ey+WWlpbm5eUVFxdXVlY+ffq0rq6uqalp27Zt2trae/funUnR0+aZDSZLS0scWYKiulbRyW+yzZ4mrWe7VAiyY8eubx15TmBKSUnZuNlLjKFA1DDjSZPKWiSetmTRYm8vr5s3b4aGhmppaUlKSq5fv97R0dHJycnb2/vYsWPh4eHp6el8cx4RESEvL79+/frs7OxpEczk4Gww2dnaYvAkJE2KoWVBVjWkaltOA+jDNO8KIG6Ll0/rNy4z5vtNra2t6enpntt8gCRJoroZTc+WomaMpUmKAYTV1dS8vLy2bdumr6+voqKirq6OQqEEBQWZTKabm9uePXuOhBwJOxkWFBSko6PD4XCCgoJmt8iCD3E2mHx37KCSyICVq8DCwhgSg6RswLPWk4a+H9N6tgACx2XLtoqKipnctIk8fO+5ra0tMzPT12+vCJ5FVDWmaq6jqBoS2IpgUbGVK1caGRldunQpLy+vtraW90b3Q4eUlJTMzc23bt3q7e1tb2enqKAAAACAQOCePXu+tQITNZk9ppKSEj09vZ9/+um3X38VFgTAIDA8U5YXCeIHRibz0rOFMZWtnNz/ek//lIK//JWP6fnz5zk5OfsDg5aAMEiKJAJLgUKRIDHQ/Pnzzc3NMzIyBgYGhoeH+f59d3c3l8tNTU0NDw8/d+7c6dOnr1y5kpaWVltb+/r169n5AROVnI009fX1FRUVXbly5Y9t2yQ5HIFVAoJCInAkDk1mECRVKBpmPNf8QywJJqetZWF99erViSJnkuCP6VpbWx89ehQUfHj+wkVIDI7FksSisaIiIo6OjpmZmVOUaGRkZGhoqLOzs62trXl8a2tr6+7unpP3rs8GE7+dvb295eXlE38RgoSLr1q5CgpDoUgMDEsBJ7uGrKhH0zDDKumxlDT8du2aCZ0peVpbWwsKCs6ePUsiEn22bw8ICNDR1obBYKmpqVMYTfnhnH+dPaaJqjQ1Nd24fuOvpahSkpJUIhkIEFotBACA4RBxHJrEwtI4UATK0mLdLF5+09raWlxcHBkZuc7cvLCwsLi4eMuWLWg0msvlzm6Z0kSdvzUxB5j4Rb5+/frBgwe+vr4kEklAQGDFihXLly4FL10KXr1s2aIFGhoavb293/oAaVtb2+PHj2NjYy3MzfMePeJyuX5+figk8v79+18NxXwriC/nnzNMIyMjg4ODXV1djY2NDx48uHr1auChQwH+/lu9vBgMuqys7JMnT771Laft7e0VFRVxcXEmxsb3799/9uzZ8dDjTAn6lStXZve815dZfOHsnGGaKIM/2nz58mVDQ0NdXR2Xy3V0dKRSqdHR0d/qZLa3t1dVVcXFxWlqamZmZjY0NFy7elVfR2ezh0dDff1Eif9BYu4x/bPSISEhsrKyO3fu/NYXBPEibbW18fHx0tLSfEzx8fH2dnYUMrn0+2ZK/lnJLx/5LzDFx8ebm5urqam9ePHiq3HLydV9/fp1Y2NjYkIiAY/PzMxsbGy8e/fupk2bfv755wcPHkzO+W+n/wtMFRUV27ZtExYWrq2t/aaoWE9PT0tLS1JiIhwMSU1Nra+vT09P//8WU2dnZ1hYmICAQGxs7Df9cVN/f39bW1tCfIKIoNA+f/9Dhw4ZGBgsX7583rx5/x9K09u3b2NjYuBQWEBAQP23mN7h4eGOjo6U5BQcBkuhULBYLJFA0NLUDA0Nnd2jJ7PWzf9C6cbGxvLz89eOD+Vzc3NnXtehoaGOjo67GRkqysooFEpXVzcgICA+Lu7169ffpLwzL/FzOf8jTM3NzcePH1++fPmFCxc6Ozu/7EDxX5Y8PDz8+vXrlpaWvzwmK0tLVVXVuLi4zzXj3z7+H2EaGBh4+PAhAACws7OLjY2tr68fGBgYHBwcHh5++/Ytfx3qxOfQ0FB3d3dzc/Nf/y1RWVnJ/7syKSmp73mz0Hdy/I8wjYyMNDc3S0tLA4FAEAgkLi5OJBJtrKz9/f0vXLgQGxt7Z3xLSEi4devWlStXwsLC9u7d6+LioqqqCoFAVqxYwWaz//+XprGxsf7+/uvXr7u4uMjLy4PB4J9//hkAAKDRaAkJCSkpKbnxTVpams1mMxgMKpWKwWDAYPCqVauEhIR0dXUvX77c2Nj4nUIx65//R9LEX9LZ2dmZl5d348aNgwcP/rWe3c7OztLS0szMzNjY2PDDZmRkZGJiYmFhYWNj4+joyI/YJiUl/RsvS585tf8O05Q6jYyMdHd3t7S01NXVVVVVlX/YKisr//pfwGfPnr169WpgYGB202pTyvr+r/9nmL6/6v/lFX5gmhHtH5h+YJoRgRll+iFNPzDNiMCMMv2Qph+YZkRgRpl+SNMPTDMiMKNM/w8C4W5ON3zcmAAAAABJRU5ErkJggg==;" vertex="1" parent="1">
          <mxGeometry x="440" y="203" width="75.16" height="102" as="geometry" />
        </mxCell>
        <mxCell id="_bFw7IO8A0CmWNA5nllF-4" style="rounded=0;orthogonalLoop=1;jettySize=auto;html=1;entryX=0.177;entryY=0.955;entryDx=0;entryDy=0;entryPerimeter=0;" edge="1" parent="1" source="_bFw7IO8A0CmWNA5nllF-2" target="_bFw7IO8A0CmWNA5nllF-1">
          <mxGeometry relative="1" as="geometry" />
        </mxCell>
        <mxCell id="_bFw7IO8A0CmWNA5nllF-5" value="Commit" style="edgeLabel;html=1;align=center;verticalAlign=middle;resizable=0;points=[];" vertex="1" connectable="0" parent="_bFw7IO8A0CmWNA5nllF-4">
          <mxGeometry x="0.1095" relative="1" as="geometry">
            <mxPoint as="offset" />
          </mxGeometry>
        </mxCell>
      </root>
    </mxGraphModel>
  </diagram>
</mxfile>
